# xmcd CD database file
#
# Track frame offsets:
#	183
#	18430
#	34793
#	50543
#	63753
#	79268
#	88875
#	108223
#	129760
#	143548
#	158153
#	168718
#	190913
#	207255
#	225053
#	243573
#	259160
#
# Disc length: 3872 seconds
#
# Revision: 0
# Processed by: cddbd v1.5PL3 Copyright (c) Steve Scherf et al.
# Submitted via: CDex 1.50
#
DISCID=d80f1e11
DTITLE=AIRS - Jazz compil - Divers
DYEAR=1997
DGENRE=Jazz
TTITLE0=round midnight
TTITLE1=Samba de orfeu
TTITLE2=over the rainbow
TTITLE3=dream of you
TTITLE4=day dreams
TTITLE5=eclipse
TTITLE6=i have grown accustomed to her face
TTITLE7=walkin' shoes
TTITLE8=yesterday
TTITLE9=on green dolphin street
TTITLE10=time after time
TTITLE11=My little suede shoes
TTITLE12=tenderly
TTITLE13=lover man
TTITLE14=isfahan
TTITLE15=norwegian wood
TTITLE16=out of the blue
EXTD=YEAR: 1997
EXTT0=
EXTT1=
EXTT2=
EXTT3=
EXTT4=
EXTT5=
EXTT6=
EXTT7=
EXTT8=
EXTT9=
EXTT10=
EXTT11=
EXTT12=
EXTT13=
EXTT14=
EXTT15=
EXTT16=
PLAYORDER=
